<?xml version="1.0" encoding="UTF-8" standalone="no"?>
<!-- Created with Inkscape (http://www.inkscape.org/) -->

<svg
   xmlns:dc="http://purl.org/dc/elements/1.1/"
   xmlns:cc="http://creativecommons.org/ns#"
   xmlns:rdf="http://www.w3.org/1999/02/22-rdf-syntax-ns#"
   xmlns:svg="http://www.w3.org/2000/svg"
   xmlns="http://www.w3.org/2000/svg"
   xmlns:sodipodi="http://sodipodi.sourceforge.net/DTD/sodipodi-0.dtd"
   xmlns:inkscape="http://www.inkscape.org/namespaces/inkscape"
   width="8.7600327in"
   height="0.985021in"
   viewBox="0 0 222.50483 25.019533"
   version="1.1"
   id="svg8"
   inkscape:version="0.92.4 (5da689c313, 2019-01-14)"
   sodipodi:docname="logo.svg">
  <defs
     id="defs2" />
  <sodipodi:namedview
     id="base"
     pagecolor="#ffffff"
     bordercolor="#666666"
     borderopacity="1.0"
     inkscape:pageopacity="0.0"
     inkscape:pageshadow="2"
     inkscape:zoom="0.98994949"
     inkscape:cx="451.57946"
     inkscape:cy="-8.6736431"
     inkscape:document-units="mm"
     inkscape:current-layer="flowRoot4515"
     showgrid="false"
     inkscape:showpageshadow="false"
     units="in"
     inkscape:window-width="1920"
     inkscape:window-height="1027"
     inkscape:window-x="-8"
     inkscape:window-y="-8"
     inkscape:window-maximized="1"
     inkscape:snap-bbox="true"
     inkscape:bbox-paths="true"
     fit-margin-top="0"
     fit-margin-left="0"
     fit-margin-right="0"
     fit-margin-bottom="0" />
  <metadata
     id="metadata5">
    <rdf:RDF>
      <cc:Work
         rdf:about="">
        <dc:format>image/svg+xml</dc:format>
        <dc:type
           rdf:resource="http://purl.org/dc/dcmitype/StillImage" />
        <dc:title></dc:title>
      </cc:Work>
    </rdf:RDF>
  </metadata>
  <g
     inkscape:label="Layer 1"
     inkscape:groupmode="layer"
     id="layer1"
     transform="translate(-22.757068,-132.61441)">
    <g
       aria-label="SATOOLSFACTORY"
       transform="matrix(0.83958165,0,0,0.83958165,-31.769693,-59.729988)"
       style="font-style:normal;font-variant:normal;font-weight:normal;font-stretch:normal;font-size:40px;line-height:1.25;font-family:Roboto;-inkscape-font-specification:'Roboto, Normal';font-variant-ligatures:normal;font-variant-caps:normal;font-variant-numeric:normal;font-feature-settings:normal;text-align:start;letter-spacing:0px;word-spacing:0px;writing-mode:lr-tb;text-anchor:start;fill:#000000;fill-opacity:1;stroke:none"
       id="flowRoot4515">
      <path
         d="m 65.445156,254.47552 v -5.84 l 7.56,-1.16 v 4.6 h 2.76 v -3.64 l -10.32,-5.76 v -9.24 l 3.72,-3.84 h 10.48 l 3.72,3.64 v 4.8 l -7.56,1.16 v -3.44 h -2.76 v 2.72 l 10.28,5.76 v 10.36 l -3.76,3.8 h -10.24 z"
         style="font-style:normal;font-variant:normal;font-weight:normal;font-stretch:normal;font-family:Autumn;-inkscape-font-specification:Autumn;stroke:#ffffff;stroke-opacity:1"
         id="path4523"
         inkscape:connector-curvature="0" />
      <path
         d="m 84.239531,258.39552 4.8,-28.8 h 11.359999 l 4.8,28.8 h -8.079999 l -0.52,-4.72 h -3.76 l -0.52,4.72 z m 10.92,-18.84 -0.28,-2.44 -0.08,-1.04 -0.08,-1 -0.08,1 -0.08,1.04 -0.28,2.44 -1.2,7.56 h 3.28 z"
         style="font-style:normal;font-variant:normal;font-weight:normal;font-stretch:normal;font-family:Autumn;-inkscape-font-specification:Autumn;stroke:#ffffff;stroke-opacity:1"
         id="path4525"
         inkscape:connector-curvature="0" />
      <path
         d="m 104.63016,236.63552 v -7.04 h 16.4 v 7.04 h -4.48 v 21.76 h -7.48 v -21.76 z"
         style="font-style:normal;font-variant:normal;font-weight:normal;font-stretch:normal;font-family:Autumn;-inkscape-font-specification:Autumn;stroke:#ffffff;stroke-opacity:1"
         id="path4527"
         inkscape:connector-curvature="0" />
      <path
         d="m 121.92953,254.63552 v -21.24 l 3.76,-3.8 h 10.24 l 3.76,3.8 v 21.24 l -3.76,3.76 h -10.24 z m 10.24,-18.68 h -2.76 v 16.04 h 2.76 z"
         style="font-style:normal;font-variant:normal;font-weight:normal;font-stretch:normal;font-family:Autumn;-inkscape-font-specification:Autumn;stroke:#ffffff;stroke-opacity:1"
         id="path4529"
         inkscape:connector-curvature="0" />
      <path
         d="m 142.00766,254.63552 v -21.24 l 3.76,-3.8 h 10.24 l 3.76,3.8 v 21.24 l -3.76,3.76 h -10.24 z m 10.24,-18.68 h -2.76 v 16.04 h 2.76 z"
         style="font-style:normal;font-variant:normal;font-weight:normal;font-stretch:normal;font-family:Autumn;-inkscape-font-specification:Autumn;stroke:#ffffff;stroke-opacity:1"
         id="path4531"
         inkscape:connector-curvature="0" />
      <path
         d="m 162.08578,258.39552 v -28.8 h 7.52 v 21.6 h 6.52 v 7.2 z"
         style="font-style:normal;font-variant:normal;font-weight:normal;font-stretch:normal;font-family:Autumn;-inkscape-font-specification:Autumn;stroke:#ffffff;stroke-opacity:1"
         id="path4533"
         inkscape:connector-curvature="0" />
      <path
         d="m 177.32016,254.47552 v -5.84 l 7.56,-1.16 v 4.6 h 2.76 v -3.64 l -10.32,-5.76 v -9.24 l 3.72,-3.84 h 10.48 l 3.72,3.64 v 4.8 l -7.56,1.16 v -3.44 h -2.76 v 2.72 l 10.28,5.76 v 10.36 l -3.76,3.8 h -10.24 z"
         style="font-style:normal;font-variant:normal;font-weight:normal;font-stretch:normal;font-family:Autumn;-inkscape-font-specification:Autumn;stroke:#ffffff;stroke-opacity:1"
         id="path4535"
         inkscape:connector-curvature="0" />
      <path
         d="m 197.55453,258.39552 v -28.8 h 15.6 v 6.88 h -8.04 v 3.76 h 7.4 v 6.88 h -7.48 v 11.28 z"
         style="font-style:normal;font-variant:normal;font-weight:normal;font-stretch:normal;font-family:Autumn;-inkscape-font-specification:Autumn;stroke:#ffffff;stroke-opacity:1"
         id="path4537"
         inkscape:connector-curvature="0" />
      <path
         d="m 212.91141,258.39552 4.8,-28.8 h 11.36 l 4.8,28.8 h -8.08 l -0.52,-4.72 h -3.76 l -0.52,4.72 z m 10.92,-18.84 -0.28,-2.44 -0.08,-1.04 -0.08,-1 -0.08,1 -0.08,1.04 -0.28,2.44 -1.2,7.56 h 3.28 z"
         style="font-style:normal;font-variant:normal;font-weight:normal;font-stretch:normal;font-family:Autumn;-inkscape-font-specification:Autumn;stroke:#ffffff;stroke-opacity:1"
         id="path4539"
         inkscape:connector-curvature="0" />
      <path
         d="m 234.74203,254.51552 v -21.12 l 3.8,-3.8 h 10.08 l 3.84,3.8 v 6.56 l -7.48,1 v -4.96 h -2.76 v 16 h 2.8 v -5.8 l 7.52,-1.04 v 9.44 l -3.8,3.8 h -10.16 z"
         style="font-style:normal;font-variant:normal;font-weight:normal;font-stretch:normal;font-family:Autumn;-inkscape-font-specification:Autumn;stroke:#ffffff;stroke-opacity:1"
         id="path4541"
         inkscape:connector-curvature="0" />
      <path
         d="m 253.45828,236.63552 v -7.04 h 16.4 v 7.04 h -4.48 v 21.76 h -7.48 v -21.76 z"
         style="font-style:normal;font-variant:normal;font-weight:normal;font-stretch:normal;font-family:Autumn;-inkscape-font-specification:Autumn;stroke:#ffffff;stroke-opacity:1"
         id="path4543"
         inkscape:connector-curvature="0" />
      <path
         d="m 270.75766,254.63552 v -21.24 l 3.76,-3.8 h 10.24 l 3.76,3.8 v 21.24 l -3.76,3.76 h -10.24 z m 10.24,-18.68 h -2.76 v 16.04 h 2.76 z"
         style="font-style:normal;font-variant:normal;font-weight:normal;font-stretch:normal;font-family:Autumn;-inkscape-font-specification:Autumn;stroke:#ffffff;stroke-opacity:1"
         id="path4545"
         inkscape:connector-curvature="0" />
      <path
         d="m 290.83578,258.39552 v -28.8 h 14.2 l 3.8,3.8 v 7.12 l -3.08,3.16 3.04,3 v 11.72 h -7.48 v -11.6 h -2.96 v 11.6 z m 10.48,-22.76 h -2.96 v 5 h 2.96 z"
         style="font-style:normal;font-variant:normal;font-weight:normal;font-stretch:normal;font-family:Autumn;-inkscape-font-specification:Autumn;stroke:#ffffff;stroke-opacity:1"
         id="path4547"
         inkscape:connector-curvature="0" />
      <path
         d="m 309.10828,229.59552 h 8.08 l 1.44,7.48 0.32,2.4 0.16,1.48 0.08,0.96 0.12,-1.24 0.16,-1.2 0.24,-2.16 0.04,-0.24 1.44,-7.48 h 8.08 l -6.36,18.92 v 9.88 h -7.44 v -9.88 z"
         style="font-style:normal;font-variant:normal;font-weight:normal;font-stretch:normal;font-family:Autumn;-inkscape-font-specification:Autumn;stroke:#ffffff;stroke-opacity:1"
         id="path4549"
         inkscape:connector-curvature="0" />
      <path
         id="path4552"
         style="font-style:normal;font-variant:normal;font-weight:normal;font-stretch:normal;font-family:Autumn;-inkscape-font-specification:Autumn;stroke:#ffffff;stroke-opacity:1"
         d="m 104.63016,236.63552 v -7.04 h 16.4 v 7.04 h -4.48 v 21.76 h -7.48 v -21.76 z"
         inkscape:connector-curvature="0" />
      <path
         style="fill:#ffff00;fill-opacity:1;stroke:none;stroke-width:0.31513712px;stroke-linecap:butt;stroke-linejoin:miter;stroke-opacity:1"
         d="m 109.07016,236.63552 7.07489,-7.07489 4.88511,0.0349 v 7.04 h -4.48 v 3.5618 l -7.54597,7.54597 z"
         id="path4554"
         inkscape:connector-curvature="0" />
      <path
         style="fill:#ffff00;fill-opacity:1;stroke:none;stroke-width:0.31513712px;stroke-linecap:butt;stroke-linejoin:miter;stroke-opacity:1"
         d="m 109.07016,258.39552 7.49044,-7.36382 -0.0104,7.36382 h -7.48"
         id="path4556"
         inkscape:connector-curvature="0"
         sodipodi:nodetypes="cccc" />
    </g>
  </g>
</svg>
